<?xml version="1.0" encoding="utf-8"?>
<!-- Generator: Adobe Illustrator 16.0.3, SVG Export Plug-In . SVG Version: 6.00 Build 0)  -->
<!DOCTYPE svg PUBLIC "-//W3C//DTD SVG 1.1//EN" "http://www.w3.org/Graphics/SVG/1.1/DTD/svg11.dtd">
<svg version="1.1" id="Layer_1" xmlns="http://www.w3.org/2000/svg" xmlns:xlink="http://www.w3.org/1999/xlink" x="0px" y="0px"
	 width="227.777px" height="107.556px" viewBox="0 0 227.777 107.556" enable-background="new 0 0 227.777 107.556"
	 xml:space="preserve">
<g>
	<g>
		<polygon fill="#00AFAA" points="180.038,48.246 185.55,48.246 182.769,40.636 		"/>
		<path fill="#00AFAA" d="M162.876,38.636h-2.666v6.095h2.666c1.051,0,1.938-0.109,2.631-0.325c0.637-0.199,1.123-0.522,1.448-0.962
			c0.323-0.438,0.487-1.034,0.487-1.774c0-0.9-0.25-1.607-0.768-2.161C166.288,39.116,165.307,38.636,162.876,38.636z"/>
		<path fill="#00AFAA" d="M185.182,6.596h-55.353c4.556,4.283,7.406,10.361,7.406,17.109c0,2.575-0.42,5.052-1.187,7.371
			c7.436,6.398,12.148,15.871,12.148,26.451c0,11.654-5.717,21.966-14.494,28.304h51.607c21.817,0,39.504-17.687,39.504-39.503
			C224.814,24.511,207,6.596,185.182,6.596z M170.845,47.333c-1.54,1.29-3.838,1.944-6.828,1.944h-3.807v6.072
			c0,1.067-0.27,1.9-0.799,2.477c-0.536,0.59-1.225,0.891-2.045,0.891c-0.854,0-1.555-0.299-2.082-0.887
			c-0.516-0.57-0.778-1.395-0.778-2.449V37.488c0-1.178,0.294-2.047,0.874-2.584c0.568-0.529,1.444-0.799,2.604-0.799h6.033
			c1.824,0,3.256,0.145,4.254,0.431c1.019,0.283,1.914,0.763,2.656,1.423c0.744,0.655,1.318,1.475,1.707,2.435
			c0.383,0.942,0.576,2.013,0.576,3.181C173.21,44.08,172.415,46.017,170.845,47.333z M193.341,57.895
			c-0.543,0.545-1.209,0.821-1.978,0.821c-0.449,0-0.845-0.085-1.176-0.252c-0.325-0.162-0.606-0.389-0.831-0.673
			c-0.213-0.274-0.428-0.662-0.645-1.155c-0.208-0.476-0.386-0.892-0.534-1.253l-0.993-2.605h-8.744l-0.986,2.652
			c-0.457,1.222-0.843,2.031-1.178,2.477c-0.404,0.537-1.045,0.81-1.904,0.81c-0.721,0-1.363-0.265-1.912-0.786
			c-0.557-0.532-0.838-1.149-0.838-1.836c0-0.365,0.062-0.746,0.186-1.134c0.105-0.342,0.283-0.826,0.532-1.445l6.548-16.629
			c0.248-0.639,0.521-1.181,0.811-1.609c0.311-0.463,0.724-0.843,1.229-1.13c0.51-0.289,1.14-0.437,1.869-0.437
			c0.739,0,1.374,0.146,1.887,0.437c0.504,0.287,0.916,0.659,1.226,1.106c0.286,0.419,0.531,0.872,0.731,1.351
			c0.187,0.458,0.424,1.06,0.711,1.815l6.059,14.97c0.504,1.209,0.75,2.085,0.75,2.674
			C194.159,56.734,193.884,57.351,193.341,57.895z M212.239,37.583c-0.213,0.437-0.57,1.031-1.062,1.767l-5.725,8.786v7.214
			c0,1.084-0.27,1.923-0.801,2.495c-0.541,0.579-1.234,0.872-2.061,0.872c-0.839,0-1.532-0.292-2.062-0.868
			c-0.519-0.56-0.782-1.4-0.782-2.499v-7.215l-5.59-8.667c-0.504-0.801-0.867-1.443-1.086-1.914
			c-0.238-0.513-0.355-0.959-0.355-1.364c0-0.678,0.264-1.269,0.783-1.759c0.514-0.479,1.148-0.72,1.889-0.72
			c0.786,0,1.402,0.239,1.832,0.71c0.353,0.384,0.861,1.12,1.555,2.249l3.915,6.361l4.62-7.449c0.191-0.316,0.407-0.619,0.641-0.896
			c0.26-0.31,0.553-0.55,0.87-0.715c0.334-0.173,0.737-0.261,1.198-0.261c0.719,0,1.334,0.241,1.827,0.716
			c0.495,0.482,0.746,1.055,0.746,1.701C212.592,36.617,212.474,37.107,212.239,37.583z"/>
	</g>
	<g>
		<path fill="#424143" d="M83.295,100.987c0.228,0.229,0.342,0.5,0.342,0.82c0,0.314-0.114,0.598-0.342,0.836
			c-0.235,0.219-0.511,0.328-0.825,0.328c-0.318,0-0.592-0.109-0.833-0.328l-4.025-3.559v2.709c0,0.328-0.113,0.602-0.336,0.826
			c-0.227,0.223-0.503,0.334-0.838,0.334c-0.323,0-0.599-0.111-0.831-0.334c-0.231-0.225-0.341-0.498-0.341-0.826v-8.699
			c0-0.311,0.109-0.584,0.341-0.809c0.232-0.234,0.508-0.35,0.831-0.35c0.334,0,0.611,0.115,0.838,0.35
			c0.223,0.225,0.336,0.498,0.336,0.809v2.713l4.025-3.521c0.242-0.234,0.515-0.35,0.833-0.35c0.314,0,0.59,0.115,0.825,0.35
			c0.228,0.225,0.342,0.498,0.342,0.822c0,0.312-0.114,0.582-0.342,0.812l-4.042,3.529L83.295,100.987z"/>
		<path fill="#424143" d="M88.664,102.954c-0.578,0-1.118-0.094-1.624-0.299c-0.509-0.203-0.952-0.488-1.328-0.848
			c-0.382-0.361-0.688-0.793-0.92-1.289c-0.226-0.498-0.34-1.031-0.34-1.605V96.1c0-0.576,0.102-1.123,0.318-1.625
			c0.214-0.508,0.505-0.947,0.879-1.328c0.375-0.383,0.812-0.68,1.32-0.896c0.504-0.221,1.07-0.33,1.694-0.33
			c0.548,0,1.082,0.102,1.587,0.305c0.502,0.201,0.951,0.482,1.332,0.84c0.378,0.367,0.682,0.797,0.912,1.289
			c0.228,0.494,0.345,1.031,0.345,1.604v2.818c0,0.574-0.104,1.115-0.315,1.621c-0.213,0.508-0.51,0.955-0.885,1.334
			c-0.373,0.375-0.812,0.68-1.317,0.896C89.816,102.842,89.26,102.954,88.664,102.954z M90.596,96.1c0-0.262-0.05-0.518-0.149-0.756
			c-0.097-0.234-0.234-0.436-0.408-0.609c-0.183-0.17-0.39-0.311-0.626-0.412c-0.232-0.105-0.485-0.16-0.766-0.16
			c-0.276,0-0.533,0.051-0.76,0.15c-0.231,0.096-0.433,0.227-0.605,0.387c-0.17,0.16-0.311,0.357-0.417,0.586
			c-0.101,0.229-0.148,0.473-0.148,0.727v2.764c-0.015,0.268,0.027,0.516,0.125,0.746c0.095,0.242,0.236,0.447,0.412,0.619
			c0.178,0.17,0.387,0.311,0.625,0.41c0.236,0.107,0.505,0.156,0.803,0.156c0.254,0,0.494-0.049,0.725-0.141
			c0.23-0.1,0.434-0.23,0.603-0.393c0.171-0.166,0.315-0.361,0.416-0.586c0.106-0.23,0.157-0.475,0.157-0.727L90.596,96.1z"/>
		<path fill="#424143" d="M98.039,91.977c0.55,0,1.082,0.096,1.587,0.297c0.507,0.205,0.955,0.48,1.331,0.848
			c0.38,0.361,0.683,0.791,0.912,1.283c0.232,0.496,0.349,1.031,0.349,1.607v5.822c0,0.299-0.107,0.557-0.317,0.771
			c-0.216,0.221-0.477,0.336-0.79,0.348c-0.307,0-0.58-0.094-0.803-0.299c-0.223-0.203-0.335-0.461-0.335-0.775v-5.729
			c0-0.264-0.045-0.512-0.146-0.748c-0.101-0.238-0.236-0.445-0.417-0.619c-0.178-0.168-0.38-0.309-0.619-0.414
			c-0.237-0.104-0.492-0.152-0.769-0.152c-0.253,0-0.494,0.045-0.722,0.152c-0.235,0.096-0.438,0.223-0.608,0.379
			c-0.173,0.162-0.314,0.361-0.419,0.588c-0.1,0.234-0.149,0.471-0.149,0.727v5.771c0,0.299-0.117,0.561-0.349,0.785
			c-0.224,0.223-0.496,0.334-0.792,0.334c-0.301,0-0.565-0.104-0.795-0.311c-0.232-0.207-0.346-0.459-0.346-0.764v-5.729
			c0.012-0.58,0.121-1.117,0.338-1.625c0.206-0.506,0.505-0.947,0.875-1.326c0.381-0.383,0.819-0.684,1.323-0.902
			C96.886,92.079,97.44,91.977,98.039,91.977z"/>
		<path fill="#424143" d="M106.555,94.254c-0.276,0-0.514,0.094-0.702,0.297c-0.189,0.203-0.291,0.453-0.304,0.758
			c0.013,0.262,0.115,0.49,0.304,0.678c0.188,0.193,0.426,0.285,0.702,0.285h1.175c0.42,0,0.831,0.086,1.232,0.258
			c0.397,0.176,0.753,0.41,1.062,0.721c0.313,0.301,0.56,0.656,0.744,1.068c0.181,0.41,0.275,0.848,0.275,1.301
			c0,0.449-0.087,0.877-0.256,1.279c-0.181,0.404-0.41,0.758-0.713,1.055c-0.298,0.303-0.649,0.535-1.051,0.717
			c-0.406,0.18-0.839,0.271-1.293,0.283h-3.075c-0.344,0-0.626-0.111-0.848-0.334c-0.216-0.225-0.327-0.508-0.327-0.838
			c0-0.316,0.111-0.582,0.337-0.811c0.222-0.232,0.502-0.348,0.837-0.348h3.075c0.263,0,0.496-0.1,0.707-0.293
			c0.206-0.195,0.306-0.434,0.306-0.711c0-0.289-0.1-0.527-0.299-0.715c-0.203-0.191-0.433-0.285-0.701-0.303h-1.187
			c-0.438-0.01-0.862-0.105-1.265-0.277c-0.4-0.17-0.756-0.404-1.062-0.693c-0.302-0.297-0.55-0.646-0.731-1.047
			c-0.183-0.404-0.277-0.84-0.277-1.318c0-0.424,0.089-0.836,0.262-1.242c0.172-0.395,0.407-0.764,0.715-1.07
			c0.306-0.311,0.657-0.562,1.062-0.752c0.399-0.188,0.835-0.281,1.298-0.281h3.074c0.308,0,0.572,0.111,0.795,0.334
			c0.215,0.227,0.336,0.506,0.364,0.84c0,0.338-0.116,0.609-0.333,0.826c-0.217,0.223-0.495,0.334-0.826,0.334H106.555z"/>
		<path fill="#424143" d="M118.21,100.624c0.32,0,0.594,0.115,0.818,0.348c0.227,0.229,0.337,0.494,0.337,0.811
			c0,0.33-0.11,0.613-0.337,0.838c-0.225,0.223-0.498,0.334-0.818,0.334h-4.94c-0.299,0-0.571-0.111-0.799-0.334
			c-0.24-0.225-0.354-0.508-0.354-0.838v-8.688c0-0.303,0.104-0.574,0.323-0.809c0.218-0.244,0.497-0.365,0.83-0.365h4.94
			c0.32,0,0.594,0.115,0.818,0.344c0.227,0.229,0.337,0.508,0.337,0.83c0,0.338-0.11,0.609-0.337,0.826
			c-0.225,0.223-0.498,0.334-0.818,0.334h-3.8v1.965h2.643c0.312,0,0.58,0.113,0.811,0.346c0.228,0.232,0.347,0.506,0.347,0.832
			c0,0.314-0.119,0.592-0.347,0.816c-0.23,0.225-0.499,0.34-0.811,0.34h-2.643v2.07H118.21z"/>
		<path fill="#424143" d="M15.205,60.836l0.006-0.008c0,3.977,1.498,7.373,4.315,10.188c2.809,2.809,6.204,4.218,10.175,4.218
			c3.976,0,7.36-1.409,10.156-4.218c2.79-2.814,4.192-6.211,4.192-10.18c0-3.977-1.402-7.365-4.192-10.162
			c-2.796-2.788-6.181-4.188-10.156-4.188c-3.971,0-7.513,1.389-10.327,4.175c-0.033,0.029,0-0.01,0-0.01
			c-0.418,0.428-0.902,0.758-1.45,1.027c-0.713,0.318-1.426,0.48-2.136,0.48c-0.546,0-1.103-0.101-1.646-0.292
			c-1.295-0.489-2.229-1.362-2.814-2.617c-0.326-0.675-0.487-1.36-0.487-2.031c0-0.555,0.115-1.119,0.347-1.706l9.109-25.057
			c0.453-1.295,1.196-2.188,2.229-2.665c0.874-0.393,1.679-0.585,2.418-0.585h19.247c1.365,0,2.523,0.484,3.498,1.459
			c0.964,0.965,1.453,2.129,1.453,3.488c0,1.354-0.489,2.514-1.453,3.482c-0.975,0.979-2.133,1.463-3.498,1.463H28.439L24.76,37.174
			c1.582-0.32,3.228-0.479,4.941-0.479c6.691,0,12.396,2.355,17.113,7.078c4.72,4.719,7.079,10.422,7.079,17.107
			c0,6.693-2.359,12.397-7.079,17.113c-4.717,4.719-10.422,7.078-17.113,7.078c-6.685,0-12.393-2.359-17.108-7.078
			c-4.722-4.716-7.079-10.42-7.079-17.113v-0.045c0-1.321,0.467-2.467,1.404-3.42c0.938-0.952,2.084-1.424,3.441-1.424
			c1.326,0,2.464,0.472,3.42,1.424C14.73,58.37,15.205,59.515,15.205,60.836z"/>
		<path fill="#424143" d="M75.444,65.678H51.215c-1.324,0-2.467-0.461-3.42-1.401c-0.954-0.936-1.432-2.095-1.432-3.44
			c0-1.1,0.324-2.07,0.971-2.908l29.082-38.785c0.13-0.16,0.294-0.337,0.49-0.533c0.935-0.939,2.065-1.404,3.394-1.404
			c1.356,0,2.499,0.477,3.44,1.434c0.936,0.949,1.405,2.09,1.405,3.418v33.936 M75.444,55.993V36.598L60.907,55.993H75.444z"/>
		<g>
			<path fill="#00AFAA" d="M34.129,100.987c0.231,0.229,0.344,0.5,0.344,0.82c0,0.314-0.113,0.598-0.344,0.836
				c-0.227,0.219-0.506,0.328-0.822,0.328c-0.313,0-0.595-0.109-0.835-0.328l-4.029-3.559v2.709c0,0.328-0.105,0.602-0.332,0.826
				c-0.225,0.223-0.503,0.334-0.837,0.334c-0.324,0-0.599-0.111-0.83-0.334c-0.227-0.225-0.344-0.498-0.344-0.826v-8.699
				c0-0.311,0.117-0.584,0.344-0.809c0.231-0.234,0.506-0.35,0.83-0.35c0.333,0,0.612,0.115,0.837,0.35
				c0.227,0.225,0.332,0.498,0.332,0.809v2.713l4.029-3.521c0.241-0.234,0.522-0.35,0.835-0.35c0.316,0,0.595,0.115,0.822,0.35
				c0.231,0.225,0.344,0.498,0.344,0.822c0,0.312-0.113,0.582-0.344,0.812l-4.043,3.529L34.129,100.987z"/>
			<path fill="#00AFAA" d="M39.5,102.954c-0.58,0-1.115-0.094-1.627-0.299c-0.502-0.203-0.95-0.488-1.327-0.848
				c-0.383-0.361-0.688-0.793-0.915-1.289c-0.229-0.498-0.347-1.031-0.347-1.605V96.1c0-0.576,0.107-1.123,0.32-1.625
				c0.213-0.508,0.503-0.947,0.881-1.328c0.374-0.383,0.814-0.68,1.318-0.896c0.509-0.221,1.075-0.33,1.695-0.33
				c0.551,0,1.082,0.102,1.592,0.305c0.503,0.201,0.946,0.482,1.328,0.84c0.377,0.367,0.68,0.797,0.913,1.289
				c0.23,0.494,0.344,1.031,0.344,1.604v2.818c0,0.574-0.104,1.115-0.316,1.621c-0.212,0.508-0.504,0.955-0.882,1.334
				c-0.372,0.375-0.812,0.68-1.319,0.896C40.65,102.842,40.098,102.954,39.5,102.954z M41.435,96.1c0-0.262-0.05-0.518-0.147-0.756
				c-0.101-0.234-0.238-0.436-0.414-0.609c-0.182-0.17-0.389-0.311-0.618-0.412c-0.24-0.105-0.496-0.16-0.77-0.16
				c-0.28,0-0.531,0.051-0.761,0.15c-0.23,0.096-0.433,0.227-0.608,0.387c-0.171,0.16-0.312,0.357-0.412,0.586
				c-0.105,0.229-0.158,0.473-0.158,0.727v2.764c-0.01,0.268,0.035,0.516,0.133,0.746c0.094,0.242,0.231,0.447,0.41,0.619
				c0.181,0.17,0.385,0.311,0.625,0.41c0.237,0.107,0.506,0.156,0.8,0.156c0.254,0,0.497-0.049,0.729-0.141
				c0.23-0.1,0.43-0.23,0.604-0.393c0.17-0.166,0.311-0.361,0.41-0.586c0.105-0.23,0.16-0.475,0.16-0.727L41.435,96.1z"/>
			<path fill="#00AFAA" d="M48.877,91.977c0.553,0,1.081,0.096,1.589,0.297c0.501,0.205,0.946,0.48,1.329,0.848
				c0.38,0.361,0.686,0.791,0.914,1.283c0.231,0.496,0.346,1.031,0.346,1.607v5.822c0,0.299-0.105,0.557-0.319,0.771
				c-0.21,0.221-0.478,0.336-0.787,0.348c-0.309,0-0.579-0.094-0.802-0.299c-0.221-0.203-0.335-0.461-0.335-0.775v-5.729
				c0-0.264-0.05-0.512-0.151-0.748c-0.094-0.238-0.229-0.445-0.408-0.619c-0.181-0.168-0.387-0.309-0.625-0.414
				c-0.234-0.104-0.488-0.152-0.769-0.152c-0.255,0-0.496,0.045-0.725,0.152c-0.229,0.096-0.433,0.223-0.602,0.379
				c-0.171,0.162-0.313,0.361-0.415,0.588c-0.102,0.234-0.157,0.471-0.157,0.727v5.771c0,0.299-0.118,0.561-0.345,0.785
				c-0.233,0.223-0.496,0.334-0.794,0.334c-0.299,0-0.565-0.104-0.795-0.311c-0.231-0.207-0.345-0.459-0.345-0.764v-5.729
				c0.013-0.58,0.121-1.117,0.334-1.625c0.213-0.506,0.506-0.947,0.884-1.326c0.369-0.383,0.811-0.684,1.319-0.902
				C47.724,92.079,48.279,91.977,48.877,91.977z"/>
			<path fill="#00AFAA" d="M57.389,94.254c-0.272,0-0.511,0.094-0.696,0.297c-0.192,0.203-0.292,0.453-0.303,0.758
				c0.01,0.262,0.11,0.49,0.303,0.678c0.185,0.193,0.424,0.285,0.696,0.285h1.173c0.429,0,0.841,0.086,1.236,0.258
				c0.398,0.176,0.753,0.41,1.063,0.721c0.312,0.301,0.557,0.656,0.745,1.068c0.182,0.41,0.274,0.848,0.274,1.301
				c0,0.449-0.088,0.877-0.26,1.279c-0.172,0.404-0.409,0.758-0.708,1.055c-0.298,0.303-0.653,0.535-1.05,0.717
				c-0.411,0.18-0.838,0.271-1.301,0.283h-3.072c-0.349,0-0.629-0.111-0.845-0.334c-0.218-0.225-0.328-0.508-0.328-0.838
				c0-0.316,0.109-0.582,0.333-0.811c0.224-0.232,0.507-0.348,0.84-0.348h3.072c0.269,0,0.501-0.1,0.712-0.293
				c0.207-0.195,0.309-0.434,0.309-0.711c0-0.289-0.101-0.527-0.305-0.715c-0.202-0.191-0.433-0.285-0.7-0.303h-1.19
				c-0.437-0.01-0.854-0.105-1.259-0.277c-0.401-0.17-0.759-0.404-1.064-0.693c-0.306-0.297-0.548-0.646-0.731-1.047
				c-0.183-0.404-0.278-0.84-0.278-1.318c0-0.424,0.089-0.836,0.262-1.242c0.174-0.395,0.41-0.764,0.713-1.07
				c0.307-0.311,0.663-0.562,1.06-0.752c0.405-0.188,0.838-0.281,1.298-0.281h3.076c0.311,0,0.574,0.111,0.795,0.334
				c0.215,0.227,0.338,0.506,0.361,0.84c0,0.338-0.11,0.609-0.331,0.826c-0.219,0.223-0.491,0.334-0.825,0.334H57.389z"/>
			<path fill="#00AFAA" d="M69.046,100.624c0.323,0,0.595,0.115,0.822,0.348c0.225,0.229,0.336,0.494,0.336,0.811
				c0,0.33-0.112,0.613-0.336,0.838c-0.227,0.223-0.5,0.334-0.822,0.334H64.11c-0.303,0-0.57-0.111-0.807-0.334
				c-0.232-0.225-0.355-0.508-0.355-0.838v-8.688c0-0.303,0.112-0.574,0.33-0.809c0.22-0.244,0.498-0.365,0.833-0.365h4.936
				c0.323,0,0.595,0.115,0.822,0.344c0.225,0.229,0.336,0.508,0.336,0.83c0,0.338-0.112,0.609-0.336,0.826
				c-0.227,0.223-0.5,0.334-0.822,0.334h-3.8v1.965h2.644c0.311,0,0.577,0.113,0.81,0.346c0.233,0.232,0.347,0.506,0.347,0.832
				c0,0.314-0.113,0.592-0.347,0.816c-0.232,0.225-0.499,0.34-0.81,0.34h-2.644v2.07H69.046z"/>
			<g>
				<path fill="#00AFAA" d="M102.663,57.417c-0.934-0.952-2.083-1.424-3.44-1.424h-7.275h-6.778h-4.847
					c-1.355,0-2.506,0.465-3.438,1.403c-0.902,0.901-1.36,1.999-1.397,3.289c-0.001,0.052-0.015,0.098-0.015,0.151v0.001v0.002
					v4.839v6.788v7.757c0,1.361,0.476,2.506,1.433,3.441c0.952,0.939,2.093,1.408,3.416,1.408c1.354,0,2.504-0.469,3.441-1.408
					c0.939-0.936,1.405-2.08,1.405-3.441v-7.757v-6.788h6.778h7.275c1.358,0,2.507-0.461,3.44-1.401
					c0.938-0.936,1.41-2.095,1.41-3.44C104.072,59.515,103.601,58.37,102.663,57.417z"/>
				<path fill="#00AFAA" d="M128.782,37.374c-1.853-1.815-3.809-3.318-5.889-4.526c1.887-2.753,2.834-5.888,2.834-9.396
					c0-4.715-1.657-8.719-4.98-12.02c-3.323-3.304-7.314-4.951-12-4.951c-4.714,0-8.707,1.643-11.988,4.924
					c-0.039,0.033-0.079,0.076-0.11,0.111c-0.121,0.111-0.25,0.242-0.401,0.396c-1.094,1.095-1.64,2.434-1.64,4.021
					c0,1.545,0.545,2.874,1.64,3.986c1.096,1.115,2.435,1.667,4.013,1.667c1.551,0,2.892-0.563,4.023-1.698
					c0.114-0.116,0.226-0.225,0.343-0.341c0.033-0.032,0.093-0.067,0.161-0.109c1.1-1.088,2.42-1.645,3.959-1.645
					c1.594,0,2.929,0.557,4.026,1.645c1.088,1.093,1.638,2.433,1.638,4.015c0,1.55-0.55,2.879-1.638,3.995
					c-1.097,1.109-2.432,1.664-4.026,1.664c-1.582,0-2.917,0.547-4.01,1.638c-1.093,1.096-1.641,2.439-1.641,4.018
					c0,1.549,0.547,2.877,1.641,3.99c1.093,1.117,2.428,1.676,4.01,1.676c4.686,0,8.677,1.645,12,4.945
					c3.323,3.298,4.98,7.309,4.98,12.025c0,4.673-1.657,8.674-4.98,11.99c-3.323,3.321-7.314,4.989-12,4.989
					c-4.714,0-8.707-1.668-11.988-4.989c-0.039-0.029-0.079-0.077-0.11-0.111c-0.121-0.15-0.25-0.303-0.401-0.453
					c-1.128-1.094-2.47-1.646-4.017-1.646c-1.585,0-2.922,0.553-4.011,1.646c-1.093,1.098-1.646,2.434-1.646,4.023
					c0,1.537,0.553,2.86,1.646,3.955c0.11,0.152,0.223,0.283,0.334,0.395c0.077,0.074,0.155,0.133,0.227,0.172
					c5.507,5.547,12.163,8.316,19.967,8.316c7.811,0,14.479-2.762,20.008-8.291c5.525-5.524,8.286-12.189,8.286-19.996
					C137.041,49.588,134.287,42.92,128.782,37.374z"/>
			</g>
		</g>
	</g>
</g>
</svg>
